%TF.GenerationSoftware,KiCad,Pcbnew,7.0.1*%
%TF.CreationDate,2023-04-10T11:15:14-05:00*%
%TF.ProjectId,flexible nao,666c6578-6962-46c6-9520-6e616f2e6b69,rev?*%
%TF.SameCoordinates,Original*%
%TF.FileFunction,Legend,Top*%
%TF.FilePolarity,Positive*%
%FSLAX46Y46*%
G04 Gerber Fmt 4.6, Leading zero omitted, Abs format (unit mm)*
G04 Created by KiCad (PCBNEW 7.0.1) date 2023-04-10 11:15:14*
%MOMM*%
%LPD*%
G01*
G04 APERTURE LIST*
%ADD10C,0.150000*%
%ADD11C,0.050000*%
%ADD12C,0.025000*%
%ADD13C,0.010000*%
G04 APERTURE END LIST*
D10*
%TO.C,C1*%
X267308333Y-157817380D02*
X267260714Y-157865000D01*
X267260714Y-157865000D02*
X267117857Y-157912619D01*
X267117857Y-157912619D02*
X267022619Y-157912619D01*
X267022619Y-157912619D02*
X266879762Y-157865000D01*
X266879762Y-157865000D02*
X266784524Y-157769761D01*
X266784524Y-157769761D02*
X266736905Y-157674523D01*
X266736905Y-157674523D02*
X266689286Y-157484047D01*
X266689286Y-157484047D02*
X266689286Y-157341190D01*
X266689286Y-157341190D02*
X266736905Y-157150714D01*
X266736905Y-157150714D02*
X266784524Y-157055476D01*
X266784524Y-157055476D02*
X266879762Y-156960238D01*
X266879762Y-156960238D02*
X267022619Y-156912619D01*
X267022619Y-156912619D02*
X267117857Y-156912619D01*
X267117857Y-156912619D02*
X267260714Y-156960238D01*
X267260714Y-156960238D02*
X267308333Y-157007857D01*
X268260714Y-157912619D02*
X267689286Y-157912619D01*
X267975000Y-157912619D02*
X267975000Y-156912619D01*
X267975000Y-156912619D02*
X267879762Y-157055476D01*
X267879762Y-157055476D02*
X267784524Y-157150714D01*
X267784524Y-157150714D02*
X267689286Y-157198333D01*
%TO.C,C2*%
X123408333Y-65867380D02*
X123360714Y-65915000D01*
X123360714Y-65915000D02*
X123217857Y-65962619D01*
X123217857Y-65962619D02*
X123122619Y-65962619D01*
X123122619Y-65962619D02*
X122979762Y-65915000D01*
X122979762Y-65915000D02*
X122884524Y-65819761D01*
X122884524Y-65819761D02*
X122836905Y-65724523D01*
X122836905Y-65724523D02*
X122789286Y-65534047D01*
X122789286Y-65534047D02*
X122789286Y-65391190D01*
X122789286Y-65391190D02*
X122836905Y-65200714D01*
X122836905Y-65200714D02*
X122884524Y-65105476D01*
X122884524Y-65105476D02*
X122979762Y-65010238D01*
X122979762Y-65010238D02*
X123122619Y-64962619D01*
X123122619Y-64962619D02*
X123217857Y-64962619D01*
X123217857Y-64962619D02*
X123360714Y-65010238D01*
X123360714Y-65010238D02*
X123408333Y-65057857D01*
X123789286Y-65057857D02*
X123836905Y-65010238D01*
X123836905Y-65010238D02*
X123932143Y-64962619D01*
X123932143Y-64962619D02*
X124170238Y-64962619D01*
X124170238Y-64962619D02*
X124265476Y-65010238D01*
X124265476Y-65010238D02*
X124313095Y-65057857D01*
X124313095Y-65057857D02*
X124360714Y-65153095D01*
X124360714Y-65153095D02*
X124360714Y-65248333D01*
X124360714Y-65248333D02*
X124313095Y-65391190D01*
X124313095Y-65391190D02*
X123741667Y-65962619D01*
X123741667Y-65962619D02*
X124360714Y-65962619D01*
D11*
%TO.C,C1*%
X271725000Y-154500000D02*
X263225000Y-154500000D01*
X271725000Y-150750000D02*
X271725000Y-154500000D01*
X271725000Y-150750000D02*
X263225000Y-150750000D01*
X263225000Y-150750000D02*
X263225000Y-154500000D01*
D12*
X260196261Y-152326189D02*
X260196261Y-152316666D01*
X260196261Y-152316666D02*
X260201023Y-152307142D01*
X260201023Y-152307142D02*
X260205785Y-152302380D01*
X260205785Y-152302380D02*
X260215309Y-152297618D01*
X260215309Y-152297618D02*
X260234357Y-152292856D01*
X260234357Y-152292856D02*
X260258166Y-152292856D01*
X260258166Y-152292856D02*
X260277214Y-152297618D01*
X260277214Y-152297618D02*
X260286738Y-152302380D01*
X260286738Y-152302380D02*
X260291500Y-152307142D01*
X260291500Y-152307142D02*
X260296261Y-152316666D01*
X260296261Y-152316666D02*
X260296261Y-152326189D01*
X260296261Y-152326189D02*
X260291500Y-152335713D01*
X260291500Y-152335713D02*
X260286738Y-152340475D01*
X260286738Y-152340475D02*
X260277214Y-152345237D01*
X260277214Y-152345237D02*
X260258166Y-152349999D01*
X260258166Y-152349999D02*
X260234357Y-152349999D01*
X260234357Y-152349999D02*
X260215309Y-152345237D01*
X260215309Y-152345237D02*
X260205785Y-152340475D01*
X260205785Y-152340475D02*
X260201023Y-152335713D01*
X260201023Y-152335713D02*
X260196261Y-152326189D01*
X260286738Y-152249999D02*
X260291500Y-152245237D01*
X260291500Y-152245237D02*
X260296261Y-152249999D01*
X260296261Y-152249999D02*
X260291500Y-152254761D01*
X260291500Y-152254761D02*
X260286738Y-152249999D01*
X260286738Y-152249999D02*
X260296261Y-152249999D01*
X260296261Y-152149999D02*
X260296261Y-152207142D01*
X260296261Y-152178570D02*
X260196261Y-152178570D01*
X260196261Y-152178570D02*
X260210547Y-152188094D01*
X260210547Y-152188094D02*
X260220071Y-152197618D01*
X260220071Y-152197618D02*
X260224833Y-152207142D01*
X260296261Y-152102380D02*
X260296261Y-152083332D01*
X260296261Y-152083332D02*
X260291500Y-152073809D01*
X260291500Y-152073809D02*
X260286738Y-152069047D01*
X260286738Y-152069047D02*
X260272452Y-152059523D01*
X260272452Y-152059523D02*
X260253404Y-152054761D01*
X260253404Y-152054761D02*
X260215309Y-152054761D01*
X260215309Y-152054761D02*
X260205785Y-152059523D01*
X260205785Y-152059523D02*
X260201023Y-152064285D01*
X260201023Y-152064285D02*
X260196261Y-152073809D01*
X260196261Y-152073809D02*
X260196261Y-152092856D01*
X260196261Y-152092856D02*
X260201023Y-152102380D01*
X260201023Y-152102380D02*
X260205785Y-152107142D01*
X260205785Y-152107142D02*
X260215309Y-152111904D01*
X260215309Y-152111904D02*
X260239119Y-152111904D01*
X260239119Y-152111904D02*
X260248642Y-152107142D01*
X260248642Y-152107142D02*
X260253404Y-152102380D01*
X260253404Y-152102380D02*
X260258166Y-152092856D01*
X260258166Y-152092856D02*
X260258166Y-152073809D01*
X260258166Y-152073809D02*
X260253404Y-152064285D01*
X260253404Y-152064285D02*
X260248642Y-152059523D01*
X260248642Y-152059523D02*
X260239119Y-152054761D01*
X260196261Y-151969047D02*
X260196261Y-151988094D01*
X260196261Y-151988094D02*
X260201023Y-151997618D01*
X260201023Y-151997618D02*
X260205785Y-152002380D01*
X260205785Y-152002380D02*
X260220071Y-152011904D01*
X260220071Y-152011904D02*
X260239119Y-152016666D01*
X260239119Y-152016666D02*
X260277214Y-152016666D01*
X260277214Y-152016666D02*
X260286738Y-152011904D01*
X260286738Y-152011904D02*
X260291500Y-152007142D01*
X260291500Y-152007142D02*
X260296261Y-151997618D01*
X260296261Y-151997618D02*
X260296261Y-151978571D01*
X260296261Y-151978571D02*
X260291500Y-151969047D01*
X260291500Y-151969047D02*
X260286738Y-151964285D01*
X260286738Y-151964285D02*
X260277214Y-151959523D01*
X260277214Y-151959523D02*
X260253404Y-151959523D01*
X260253404Y-151959523D02*
X260243880Y-151964285D01*
X260243880Y-151964285D02*
X260239119Y-151969047D01*
X260239119Y-151969047D02*
X260234357Y-151978571D01*
X260234357Y-151978571D02*
X260234357Y-151997618D01*
X260234357Y-151997618D02*
X260239119Y-152007142D01*
X260239119Y-152007142D02*
X260243880Y-152011904D01*
X260243880Y-152011904D02*
X260253404Y-152016666D01*
X260296261Y-151911904D02*
X260296261Y-151892856D01*
X260296261Y-151892856D02*
X260291500Y-151883333D01*
X260291500Y-151883333D02*
X260286738Y-151878571D01*
X260286738Y-151878571D02*
X260272452Y-151869047D01*
X260272452Y-151869047D02*
X260253404Y-151864285D01*
X260253404Y-151864285D02*
X260215309Y-151864285D01*
X260215309Y-151864285D02*
X260205785Y-151869047D01*
X260205785Y-151869047D02*
X260201023Y-151873809D01*
X260201023Y-151873809D02*
X260196261Y-151883333D01*
X260196261Y-151883333D02*
X260196261Y-151902380D01*
X260196261Y-151902380D02*
X260201023Y-151911904D01*
X260201023Y-151911904D02*
X260205785Y-151916666D01*
X260205785Y-151916666D02*
X260215309Y-151921428D01*
X260215309Y-151921428D02*
X260239119Y-151921428D01*
X260239119Y-151921428D02*
X260248642Y-151916666D01*
X260248642Y-151916666D02*
X260253404Y-151911904D01*
X260253404Y-151911904D02*
X260258166Y-151902380D01*
X260258166Y-151902380D02*
X260258166Y-151883333D01*
X260258166Y-151883333D02*
X260253404Y-151873809D01*
X260253404Y-151873809D02*
X260248642Y-151869047D01*
X260248642Y-151869047D02*
X260239119Y-151864285D01*
X260296261Y-151745238D02*
X260229595Y-151745238D01*
X260196261Y-151745238D02*
X260201023Y-151750000D01*
X260201023Y-151750000D02*
X260205785Y-151745238D01*
X260205785Y-151745238D02*
X260201023Y-151740476D01*
X260201023Y-151740476D02*
X260196261Y-151745238D01*
X260196261Y-151745238D02*
X260205785Y-151745238D01*
X260229595Y-151697619D02*
X260296261Y-151697619D01*
X260239119Y-151697619D02*
X260234357Y-151692857D01*
X260234357Y-151692857D02*
X260229595Y-151683333D01*
X260229595Y-151683333D02*
X260229595Y-151669048D01*
X260229595Y-151669048D02*
X260234357Y-151659524D01*
X260234357Y-151659524D02*
X260243880Y-151654762D01*
X260243880Y-151654762D02*
X260296261Y-151654762D01*
D13*
X263215000Y-154500000D02*
X259788580Y-154500000D01*
X263215000Y-149500000D02*
X259788580Y-149500000D01*
X260375000Y-154500000D02*
X260375000Y-149500000D01*
X260375000Y-154500000D02*
X260375000Y-149500000D01*
X260375000Y-154500000D02*
X260351913Y-154455649D01*
X260375000Y-154500000D02*
X260398087Y-154455649D01*
X260375000Y-149500000D02*
X260398087Y-149544351D01*
X260375000Y-149500000D02*
X260351913Y-149544351D01*
%TD*%
M02*
